<?xml version="1.0" encoding="utf-8"?>
<!-- Generator: Adobe Illustrator 25.1.0, SVG Export Plug-In . SVG Version: 6.00 Build 0)  -->
<svg version="1.1" id="Layer_1" xmlns="http://www.w3.org/2000/svg" xmlns:xlink="http://www.w3.org/1999/xlink" x="0px" y="0px"
	 viewBox="0 0 160 160" style="enable-background:new 0 0 160 160;" xml:space="preserve">
<style type="text/css">
	.st0{fill:#800000;stroke:#600000;stroke-width:5;stroke-miterlimit:10;}
	.st1{fill:#C00000;stroke:#900000;stroke-width:5;stroke-miterlimit:10;}
	.st2{fill:#FF0000;stroke:#E00000;stroke-width:5;stroke-miterlimit:10;}
	.st3{fill:#E00000;stroke:#C00000;stroke-width:5;stroke-miterlimit:10;}
	.st4{fill:#00C000;stroke:#009000;stroke-width:5;stroke-miterlimit:10;}
</style>
<path class="st0" d="M139.5,88.5c-0.12,5.19-0.83,23.13-15,38c-16.04,16.83-37.22,17.03-41,17c-2.19-0.23-35.37-4.21-50-34
	c-8.77-17.86-11.13-44.13,0-53c4.45-3.54,9.36-2.98,17-10c3.09-2.84,2.97-3.56,10.49-11.77c5.92-6.46,6.8-6.76,9.51-10.23
	c4.36-5.59,7.26-10.67,9-14c10.52,4.62,25.21,12.99,38,28C126.04,48.52,140.06,64.98,139.5,88.5z"/>
<path class="st1" d="M74.5,62.5c-5.65,9.81-12.18,8.74-16,15c-11.61,19.04,30.86,58.19,25,65c-4.15,4.82-35.59-6.44-50-33
	c-8.61-15.88-12.13-39.06-2-57c5.62-9.96,16.18-17.61,26-25c5.99-4.51,11.28-7.82,15-10c2.06,3.72,4.9,9.9,6,18
	C79.06,39.62,80.7,51.74,74.5,62.5z"/>
<path class="st2" d="M139.5,88.5c-0.12,5.19-0.83,23.13-15,38c-3.83,4.02-20.21,21.64-41,17c-18.17-4.05-27.51-22.36-30-35
	c-0.78-3.96-2.83-17.16,4-30c9.03-16.99,24.15-15.61,29-32c2.71-9.16,0.63-18.49,0-21c-1.73-6.96-4.84-12.02-7-15
	c10.52,4.62,25.21,12.99,38,28C126.04,48.52,140.06,64.98,139.5,88.5z"/>
<path class="st3" d="M139.5,88.5c-0.29,5.95-1.42,23.44-15,38c-0.46,0.5-1.25,1.34-2.31,2.39c-1.36,1.34-19.44,18.26-38.69,14.61
	c-15.58-2.96-28.78-18.81-31-39c6.56,2.03,20.67,5.23,35-1c26.26-11.41,30.44-44.53,31-49c0.89-7.06,0.5-13,0-17
	C132.5,54.5,140.84,61.43,139.5,88.5z"/>
<path class="st4" d="M44.5,126.5c6.01-0.15,9.71-0.53,12,1c2.82,1.89,3.6,3.72,7,5c3.32,1.25,3.84-0.02,8,1c4.88,1.2,5.24,3.22,10,4
	c0.78,0.13,3.1,0.45,6,0c3.51-0.55,4.83-1.77,8-3c5.59-2.17,6.15,1.82,11,0c5.21-1.96,5.53-6.61,11-9c3.6-1.57,6.91,0.07,9,0
	c-4.59,8.13-9.81,11.99-14,14c-8.21,3.93-18.57,3.64-19,7c-0.17,1.3,1.32,1.87,1,3c-0.97,3.44-16.06,3.39-17,0
	c-0.32-1.15,1.24-1.79,1-3c-0.59-3.04-10.92-1.77-19-5C55.01,139.7,49.41,135.79,44.5,126.5z"/>
</svg>
