<?xml version="1.0" encoding="utf-8"?>
<!-- Generator: Adobe Illustrator 25.1.0, SVG Export Plug-In . SVG Version: 6.00 Build 0)  -->
<svg version="1.1" id="Layer_1" xmlns="http://www.w3.org/2000/svg" xmlns:xlink="http://www.w3.org/1999/xlink" x="0px" y="0px"
	 viewBox="0 0 200 200" style="enable-background:new 0 0 200 200;" xml:space="preserve">
<style type="text/css">
	.st0{fill:#800000;stroke:#600000;stroke-width:7;stroke-miterlimit:10;}
	.st1{fill:#A00000;stroke:#800000;stroke-width:7;stroke-miterlimit:10;}
	.st2{fill:#C00000;stroke:#A00000;stroke-width:7;stroke-miterlimit:10;}
	.st3{fill:#E00000;stroke:#C00000;stroke-width:7;stroke-miterlimit:10;}
	.st4{fill:#FF0000;stroke:#E00000;stroke-width:7;stroke-miterlimit:10;}
	.st5{fill:#FF2020;stroke:#FF0000;stroke-width:7;stroke-miterlimit:10;}
	.st6{fill:#00C000;stroke:#009000;stroke-width:3;stroke-miterlimit:10;}
</style>
<path class="st0" d="M137.22,47.89c-0.37-0.66-6.03-7.92-17.33-22.44c-11.76-15.1-15.05-19.12-19.14-18.68
	c-5.71,0.61-6.49,9.22-14.2,20.46C74.84,44.31,63.4,43.71,57.89,53c-13.5,22.79,20.67,84.74,48.52,81.63
	C132.01,131.77,151.95,73.97,137.22,47.89z"/>
<path class="st1" d="M71.01,139.16C33.93,125.74,27.88,76.04,27.08,68.2c-1.94-18.93,1.36-41.83,8.89-43.33
	c6.16-1.23,9.96,12.91,29.56,31.56c13.86,13.19,17.19,11.08,28.44,22c12.33,11.96,33.61,39,25.33,53.78
	C112.6,144.16,88.07,145.34,71.01,139.16z"/>
<path class="st2" d="M89.8,131.42c-11.38-9.69-11.88-25.31-11.91-27.3c-0.4-23.62,22.11-38.26,24.89-40
	c16.77-10.54,24.31-2.27,49.56-12.89c19.08-8.03,30.31-19.28,33.78-16c2.13,2.02-0.87,7-3.33,23.33
	c-2.62,17.36,1.82,22.1-0.11,33.22c-3.51,20.26-21.84,31.94-24.45,33.53c-0.1,0.06-0.17,0.1-0.22,0.13
	C144.92,133.35,109.37,148.07,89.8,131.42z"/>
<path class="st3" d="M93.22,122.48c9.35-10.97,19.13-7.35,29.33-19.04c11.88-13.61,7.65-28.85,13.78-30.22
	c7.34-1.64,23.55,18.01,22.44,37.33c-1.97,34.41-58.47,60.73-71.33,50C80.24,154.54,83.34,134.07,93.22,122.48z"/>
<path class="st4" d="M159.43,85.87c12.47-8.87,28.02-13.21,31.13-9.31c2.5,3.14-4.92,9.29-8.22,23.56
	c-3.68,15.91,2.42,21.75-0.67,32.67c-3.97,14.06-18.84,21.16-30.81,26.89c-36.4,17.4-76.32,9.43-76.52,5.56
	c-0.14-2.76,20.08,1.61,39.11-11.78C139.55,135.08,131.01,106.1,159.43,85.87z"/>
<path class="st5" d="M8.33,85.89c2.23-4.64,20.73-0.59,32,3.11c11.18,3.67,24.51,8.04,36,19.78c16.85,17.21,10.84,30.96,28.22,46.22
	c13.32,11.7,25.86,11.54,25.36,14.32c-0.9,4.98-41.77,8.08-74.33-11.57c-7.89-4.76-16.83-10.15-22.49-20.9
	c-5.61-10.66-2.51-16.15-8.76-28.52C16.95,93.74,6.6,89.5,8.33,85.89z"/>
<path class="st6" d="M66.56,173.52c6.36-9.36,10.77-10.87,13.63-10.52c3.7,0.46,4.34,3.99,10.04,5.24c4.35,0.96,5.35-0.71,10.4,0.69
	c3.15,0.87,4.03,1.87,6.67,1.81c2.55-0.05,3.39-1.02,6.37-1.96c4.78-1.52,5.78-0.1,10.52-1.04c6.15-1.22,6.9-4.4,10.52-4.3
	c2.58,0.07,6.23,1.79,10.52,9.63c-8.34-0.75-14.71,0.66-18.67,1.93c-5.43,1.73-13.93,5.59-13.59,9.18c0.11,1.13,1.01,1.52,0.78,2.34
	c-0.76,2.68-12.55,2.65-13.28,0c-0.23-0.84,0.73-1.22,0.78-2.34c0.16-3.46-8.73-6.83-14.24-8.29c-6.06-1.6-12.08-1.94-17.04-2.22
	C68.54,173.59,67.36,173.54,66.56,173.52z"/>
</svg>
